<svg xmlns="http://www.w3.org/2000/svg" viewBox="0 0 100 100" width="512" height="512">
  <rect width="100" height="100" rx="20" fill="#0a1628"/>
  <g fill="#d4a843" transform="translate(40.8,-20.6) scale(0.877)">
    <path d="M0,52.78v31.09h4.04l.77,1.51H0v3.39h12.35l.77,1.51H0v3.39h7.01l.77,1.51H0v.45l2.89,8.15v17.03h15.02v-17.03l2.89-7.56v-4.38L0,52.78ZM10.4,114.67c-1.27,0-2.31-1.03-2.31-2.31s1.03-2.31,2.31-2.31,2.31,1.03,2.31,2.31-1.03,2.31-2.31,2.31Z"/>
    <polygon points="0 44.06 0 47.18 0 49.54 18.87 84.97 20.79 88.59 20.79 86.75 20.79 84.97 20.79 83.11 0 44.06"/>
  </g>
</svg>
